<svg id="图层_1" data-name="图层 1" xmlns="http://www.w3.org/2000/svg" viewBox="0 0 221.04 74.66"><defs><style>.cls-1{fill:#1d3d22;}</style></defs><title>footer_logo</title><path class="cls-1" d="M134.62,51.06h-2.28q-4.68.13-4-5.19l1.44-12.71h-6.66l-1.48,13.12q-1.22,8.46,7,8.2h.51q.48,0,1,0H140.9l2.4-21.32h-6.66Zm31.87-17.9h-6.87l-5.56,11.61-2.69-11.6H144.2L150,53.22l-4,8.39h6.87L166.09,34Zm-50.37,3.77a7.52,7.52,0,0,0,2.37-5.18q.83-7.23-7.88-7.24H96.14L92.83,53.89H99.5s.83-7.66,1.19-10.74a6.1,6.1,0,0,1,6.5-5.39A5.78,5.78,0,0,1,112.62,44a6.6,6.6,0,0,1-6.15,6.35c-.07,0-.58,0-1.23,0h-2.75l-.46,3.5h5.72C114.3,53.8,119,50.54,119.47,44A8,8,0,0,0,116.12,36.93Zm-4.47-4.63c0,.22-.06.42-.1.62a1.84,1.84,0,0,1-2.07,1.43,18.48,18.48,0,0,0-2.49-.17,15.41,15.41,0,0,0-5.39,1l.8-7.08h4.81C110.57,28.06,112.05,29.48,111.65,32.3Zm85.87-2.83h6.66l.53-4.78h-6.66Zm-2.78,24.6h6.66l2.36-20.91H197.1Zm21.59-17.36h4.28L221,33h-4.28l.68-6.1h-6.67l-2.42,21.54a5.42,5.42,0,0,0,5,6.15,10.66,10.66,0,0,0,1.5,0,7.71,7.71,0,0,0,4.32-1.5L219.5,50a4.46,4.46,0,0,1-2.5,1c-1.62.19-2.27-.82-1.93-3Zm-27.05.36a7.51,7.51,0,0,0,2.38-5.18q.83-7.23-7.88-7.24H169.31L166,54h6.66s.84-7.66,1.2-10.74a6.1,6.1,0,0,1,6.5-5.39,5.77,5.77,0,0,1,5.42,6.24,6.58,6.58,0,0,1-6.14,6.35c-.07,0-.58,0-1.23,0h-2.75L175.2,54h5.72c6.55-.08,11.22-3.34,11.72-9.84A8,8,0,0,0,189.28,37.07Zm-4.46-4.63c0,.21-.06.42-.1.62a1.84,1.84,0,0,1-2.07,1.43,18.48,18.48,0,0,0-2.49-.17,15.18,15.18,0,0,0-5.39,1l.8-7.08h4.81C183.74,28.2,185.22,29.62,184.82,32.44Zm-164.47-17a2,2,0,1,0,2.06,2A2,2,0,0,0,20.35,15.41Zm34.27,4a2,2,0,1,0-2-2A2,2,0,0,0,54.62,19.44ZM0,0V74.67h76.7L76.72,0,38.19,9.38ZM12.13,32.72H23.47a6.93,6.93,0,0,1,6.4,6.54v.92a6.12,6.12,0,0,1-6.4,6.13H14.18V39C14.18,37.27,13.82,33.91,12.13,32.72Zm21.33,24.4a6.49,6.49,0,0,1-6.4,6.56H20.58a6.48,6.48,0,0,1-6.4-6.56V48.8l12.88,0c3.53,0,6.4,3.39,6.4,7Zm10.85,1.13c0,6-7.79,5.38-7.79,5.38a7.31,7.31,0,0,0,2.33-5.25V48.06c0-4.31,5.46-5.12,5.46-5.12Zm-2.7-17.43a4.08,4.08,0,1,1,4-4.08A4,4,0,0,1,41.61,40.82Zm19.31,6.72c-1.73,0-2.22,0-2.91,0V56c0,4.25,5.86,3.9,5.86,3.9s-.88,3.79-4.23,3.79a7.06,7.06,0,0,1-7.11-7.51V38.62c0-4.7,5.48-5.77,5.48-5.77v9.27h6.88S65.42,47.54,60.92,47.54Zm-6.3-33.48a3.37,3.37,0,1,1-1.46,6.39c-3.87,2.93-9.22,4.42-15.57,4.42-7.52,0-12-1.57-15.67-4.47a3.47,3.47,0,0,1-1.57.39,3.37,3.37,0,1,1,3.43-3.37,3.31,3.31,0,0,1,0,.33c3.35,3.28,8.32,4.37,13.88,4.37s10.29-1,13.63-4.11a3.8,3.8,0,0,1-.06-.59A3.4,3.4,0,0,1,54.62,14.06Z" transform="translate(0.01 -0.01)"/></svg>