<?xml version="1.0" encoding="utf-8"?>
<!-- Generator: Adobe Illustrator 14.0.0, SVG Export Plug-In  -->
<!DOCTYPE svg PUBLIC "-//W3C//DTD SVG 1.1//EN" "http://www.w3.org/Graphics/SVG/1.1/DTD/svg11.dtd" [
	<!ENTITY ns_flows "http://ns.adobe.com/Flows/1.0/">
]>
<svg version="1.1"
	 xmlns="http://www.w3.org/2000/svg" xmlns:xlink="http://www.w3.org/1999/xlink" xmlns:a="http://ns.adobe.com/AdobeSVGViewerExtensions/3.0/"
	 x="0px" y="0px" width="200px" height="200px" viewBox="-0.125 0.02 200 200" enable-background="new -0.125 0.02 200 200"
	 xml:space="preserve">
<defs>
</defs>
<g>
	<g>
		<path fill-rule="evenodd" clip-rule="evenodd" d="M65.802,52.538c2.155,0,3.901-1.747,3.901-3.901
			c0-2.155-1.747-3.901-3.901-3.901c-2.155,0-3.901,1.746-3.901,3.901C61.901,50.791,63.647,52.538,65.802,52.538z M114.604,148.494
			c-0.665,0-1.25,0.129-1.761,0.386v8.178c0.532,0.116,1.047,0.175,1.542,0.175c1.006,0,1.769-0.395,2.285-1.18
			c0.519-0.787,0.777-1.912,0.777-3.378c0-1.377-0.243-2.419-0.73-3.124C116.229,148.846,115.523,148.494,114.604,148.494z
			 M99.875,0C44.716,0,0,44.716,0,99.875c0,55.159,44.716,99.875,99.875,99.875c55.159,0,99.875-44.716,99.875-99.875
			C199.75,44.716,155.034,0,99.875,0z M65.802,42.135c3.592,0,6.502,2.911,6.502,6.501c0,0.978-0.222,1.902-0.608,2.733
			c6.344,7.185,16.022,11.789,26.882,11.789c10.666,0,20.189-4.444,26.537-11.409c-0.505-0.925-0.793-1.985-0.793-3.113
			c0-3.59,2.913-6.501,6.503-6.501c3.593,0,6.503,2.911,6.503,6.501c0,3.592-2.91,6.502-6.503,6.502
			c-1.505,0-2.888-0.517-3.99-1.375c-6.907,7.214-17.026,11.781-28.323,11.781c-11.39,0-21.582-4.645-28.493-11.963
			c-1.135,0.969-2.606,1.558-4.217,1.558c-3.59,0-6.501-2.911-6.501-6.502C59.301,45.046,62.212,42.135,65.802,42.135z
			 M114.563,80.968c0,4.432-3.219,8.167-8.144,8.167c-5.171,0-8.547-2.992-8.547-8.167c0-4.479,3.352-7.714,8.547-7.714
			C111.593,73.254,114.563,76.985,114.563,80.968z M50.666,74.735c2.117-0.346,5.349-0.524,7.822-0.524
			c13.41,0,24.233,2.434,24.589,13.288c-0.356,9.453-8.689,11.934-16.942,11.934h-15.47V74.735z M50.666,105.214
			c1.407-0.345,8.745-0.794,16.326-0.526c6.813,0.243,21.418,3.06,21.418,15.673c0,10.908-7.055,14.435-24.58,14.435
			c-8.65,0-13.164-6.093-13.164-13.645V105.214z M64.38,156.765c-1.2,1.076-2.862,1.612-4.988,1.612
			c-1.332,0-2.862-0.253-4.581-0.759c0.013-0.927,0.021-2.17,0.021-3.726v-6.93c0-1.721-0.016-3.274-0.046-4.66l-1.68-0.467
			l-0.068-0.48c1.897-0.286,3.559-0.586,4.982-0.898l0.127,0.094c-0.048,1.16-0.069,2.901-0.069,5.221v2.23
			c1.165-0.73,2.299-1.097,3.404-1.097c1.448,0,2.593,0.493,3.435,1.478c0.841,0.984,1.262,2.272,1.262,3.861
			C66.18,154.184,65.58,155.69,64.38,156.765z M78.439,158.39c-1.021,0-1.692-0.422-2.012-1.262
			c-1.122,0.84-2.341,1.262-3.658,1.262c-1.234,0-2.164-0.312-2.787-0.935c-0.626-0.623-0.938-1.501-0.938-2.629v-2.476
			c0-1.668-0.015-2.895-0.045-3.682l-1.634-0.433l-0.07-0.479c1.868-0.286,3.513-0.588,4.937-0.898l0.125,0.093
			c-0.046,0.974-0.067,2.177-0.067,3.61v3.598c0,0.927,0.176,1.599,0.53,2.017c0.353,0.415,0.855,0.623,1.502,0.623
			c0.724,0,1.387-0.16,1.989-0.479v-4.976c0-1.092-0.017-1.99-0.047-2.699l-1.542-0.41l-0.068-0.479
			c1.806-0.286,3.418-0.588,4.835-0.898l0.136,0.093c-0.054,0.997-0.081,2.225-0.081,3.679c0,2.829,0.004,4.553,0.012,5.178
			c0.009,0.309,0.031,0.562,0.069,0.752c0.038,0.191,0.111,0.336,0.216,0.439c0.106,0.1,0.267,0.17,0.476,0.217
			c0.209,0.042,0.507,0.066,0.896,0.074l0.058,0.514C80.174,158.192,79.231,158.39,78.439,158.39z M92.947,148.038
			c-0.244,0.077-0.418,0.238-0.526,0.479c-0.267,0.648-0.563,1.363-0.892,2.149c-0.99,2.423-1.759,4.432-2.307,6.029
			c-0.351,1.035-0.668,2.092-0.95,3.173c-0.282,1.077-0.507,2.025-0.674,2.843c-0.083,0.445-0.239,0.749-0.468,0.912
			c-0.229,0.161-0.744,0.243-1.543,0.243c-0.837,0-1.639-0.03-2.4-0.092l-0.056-0.539c0.884-0.115,1.5-0.366,1.852-0.746
			c0.502-0.537,1.276-1.986,2.319-4.344l0.079-0.224l-0.605-0.176c-1.372-3.466-2.617-6.538-3.736-9.217
			c-0.09-0.242-0.264-0.4-0.514-0.479l-1.097-0.317l-0.045-0.561c1.012,0.024,1.932,0.037,2.754,0.037
			c1.066,0,2.202-0.013,3.406-0.037l0.056,0.561l-1.427,0.375c0.297,0.764,0.579,1.492,0.844,2.186
			c0.267,0.691,0.622,1.57,1.064,2.627c0.198,0.443,0.412,0.962,0.64,1.555c0.229-0.607,0.46-1.21,0.696-1.812
			c0.617-1.657,1.184-3.184,1.702-4.578l-1.189-0.353l-0.055-0.561c0.592,0.024,1.294,0.037,2.102,0.037
			c0.701,0,1.371-0.013,2.01-0.037l0.058,0.561L92.947,148.038z M99.81,158.692c-2.479,0-4.491-2.055-4.491-4.589
			c0-2.535,2.012-4.593,4.491-4.593c2.481,0,4.491,2.058,4.491,4.593C104.301,156.638,102.291,158.692,99.81,158.692z
			 M100.862,128.559l-0.061-28.991h11.213l-0.014,28.991c0,0-0.318,5.881-5.683,5.881
			C101.227,134.439,100.862,128.559,100.862,128.559z M119.156,156.73c-1.185,1.106-2.749,1.659-4.69,1.659
			c-0.519,0-1.06-0.056-1.623-0.165v2.466c0,0.771,0.008,1.311,0.022,1.625c0.016,0.238,0.119,0.384,0.309,0.433l1.611,0.43
			l0.033,0.562c-1.265-0.021-2.451-0.034-3.563-0.034c-1.144,0-2.263,0.013-3.36,0.034l-0.057-0.562l1.44-0.408
			c0.182-0.046,0.277-0.165,0.284-0.351c0.016-0.576,0.023-1.44,0.023-2.594v-4.66c0-3.396-0.016-5.561-0.046-6.496l-1.633-0.433
			l-0.069-0.479c1.761-0.265,3.369-0.561,4.834-0.888l0.171,0.093v1.099c1.181-0.77,2.319-1.156,3.416-1.156
			c1.432,0,2.57,0.486,3.411,1.454c0.842,0.97,1.264,2.238,1.264,3.803C120.934,154.102,120.341,155.625,119.156,156.73z
			 M130.974,150.959l-0.663,0.115c-0.197-0.768-0.393-1.36-0.582-1.774c-0.19-0.411-0.486-0.618-0.893-0.618
			c-0.387,0-0.871,0.132-1.45,0.396v5.013c0,1.205,0.008,2.07,0.023,2.592c0.008,0.22,0.104,0.356,0.284,0.409l1.635,0.443
			l0.034,0.562c-1.264-0.024-2.472-0.035-3.623-0.035c-1.096,0-2.192,0.011-3.29,0.035l-0.056-0.562l1.45-0.407
			c0.183-0.056,0.278-0.173,0.286-0.352c0.007-0.334,0.011-0.813,0.011-1.435v-3.904c0-1.269-0.015-2.191-0.045-2.769l-1.634-0.433
			l-0.068-0.479c1.758-0.265,3.366-0.561,4.821-0.888l0.171,0.093v1.263c1.349-0.88,2.759-1.32,4.228-1.32l0.058,0.082
			C131.428,148.226,131.194,149.549,130.974,150.959z M143.392,156.736c-1.157,1.104-2.667,1.653-4.524,1.653
			c-1.806,0-3.246-0.521-4.32-1.561s-1.611-2.401-1.611-4.082c0-1.706,0.564-3.106,1.691-4.199c1.128-1.096,2.652-1.643,4.571-1.643
			c1.82,0,3.264,0.505,4.331,1.515c1.066,1.005,1.6,2.341,1.6,3.998C145.129,154.195,144.549,155.635,143.392,156.736z
			 M137.638,134.795c-6.986,0-10.473-3.583-10.473-10.75v-21.859h-5.057v-2.508c6.259-2.866,10.834-7.526,13.724-13.975h2.527
			v11.466h11.918l-1.082,5.017h-10.836v22.22c0,3.105,1.445,4.657,4.335,4.657c2.167,0,4.453-1.552,6.862-4.657l1.444,2.864
			C147.626,132.053,143.175,134.557,137.638,134.795z M59.837,148.494c-0.594,0-1.181,0.129-1.759,0.386v8.132
			c0.503,0.141,1.006,0.209,1.508,0.209c1.037,0,1.811-0.392,2.326-1.175c0.513-0.782,0.771-1.896,0.771-3.347
			c0-1.323-0.241-2.356-0.721-3.095C61.483,148.864,60.774,148.494,59.837,148.494z M138.969,148.002
			c-0.837,0-1.461,0.375-1.868,1.123c-0.406,0.747-0.611,3.389-0.611,3.389s0.208,2.567,0.624,3.451
			c0.415,0.886,1.08,1.326,1.994,1.326c0.853,0,1.479-0.389,1.879-1.169c0.4-0.777,0.6-1.936,0.6-3.469
			c0-1.441-0.212-2.576-0.634-3.404C140.529,148.42,139.869,148.002,138.969,148.002z M130.825,52.538
			c2.155,0,3.901-1.747,3.901-3.901c0-2.155-1.746-3.901-3.901-3.901s-3.901,1.746-3.901,3.901
			C126.924,50.791,128.67,52.538,130.825,52.538z"/>
	</g>
</g>
</svg>
