<svg id="图层_1" data-name="图层 1" xmlns="http://www.w3.org/2000/svg" xmlns:xlink="http://www.w3.org/1999/xlink" viewBox="0 0 200 75"><defs><style>.cls-1{fill:#3b9248;}.cls-1,.cls-4{fill-rule:evenodd;}.cls-2{fill:url(#未命名的渐变_22);}.cls-3{fill:url(#未命名的渐变_27);}.cls-4{fill:#fff;}</style><linearGradient id="未命名的渐变_22" x1="126.84" y1="25.66" x2="126.84" y2="54.58" gradientUnits="userSpaceOnUse"><stop offset="0" stop-color="#b2b7b9"/><stop offset="1" stop-color="#fdfdfd"/></linearGradient><linearGradient id="未命名的渐变_27" x1="177.97" y1="23.24" x2="177.97" y2="49.21" gradientUnits="userSpaceOnUse"><stop offset="0" stop-color="#2d823a"/><stop offset="1" stop-color="#3b9148"/></linearGradient></defs><title>header_logo</title><path class="cls-1" d="M81,75H0V0H81Z" transform="translate(0 0)"/><path class="cls-2" d="M130.81,46.08H129c-2.49.07-3.55-1.32-3.16-4.19L127,31.65h-5.34l-1.18,10.57q-1,6.83,5.62,6.61h.4c.26,0,.52,0,.79,0h8.58l1.92-17.18h-5.33Zm25.52-14.43h-5.5L146.38,41l-2.16-9.35h-5.73l4.64,16.16-3.21,6.77h5.5L156,32.32l.32-.67ZM116,34.7a6.15,6.15,0,0,0,1.9-4.18q.66-5.84-6.31-5.83H100L97.35,48.36h5.34s.67-6.17,1-8.66a4.89,4.89,0,0,1,5.21-4.34,4.64,4.64,0,0,1,4.34,5,5.28,5.28,0,0,1-4.92,5.11,9.59,9.59,0,0,1-1,0h-2.2l-.37,2.81h4.58c5.24-.07,9-2.69,9.38-7.93A6.38,6.38,0,0,0,116,34.7ZM112.42,31c0,.18,0,.34-.08.5a1.48,1.48,0,0,1-1.66,1.15,14.46,14.46,0,0,0-2-.13,12.27,12.27,0,0,0-4.31.77l.64-5.7h3.84Q112.9,27.55,112.42,31Z" transform="translate(0 0)"/><path class="cls-3" d="M181.17,28.68h5.33l.44-3.85H181.6ZM179,48.5h5.33l1.89-16.85h-5.33Zm17.29-14h3.43l.33-3h-3.43l.54-4.91h-5.33L189.84,44a4.35,4.35,0,0,0,4,5,11.73,11.73,0,0,0,1.19,0,6.28,6.28,0,0,0,3.47-1.21l.28-2.53a3.58,3.58,0,0,1-2,.77c-1.3.14-1.81-.66-1.55-2.43Zm-21.66.29a6.11,6.11,0,0,0,1.91-4.17q.64-5.84-6.31-5.84H158.59l-2.66,23.67h5.34s.67-6.17,1-8.65a4.9,4.9,0,0,1,5.21-4.35,4.65,4.65,0,0,1,4.34,5,5.3,5.3,0,0,1-4.92,5.12c-.06,0-.46,0-1,0h-2.2l-.36,2.81h4.57c5.25-.06,9-2.69,9.39-7.93A6.42,6.42,0,0,0,174.58,34.81ZM171,31.08c0,.17,0,.33-.07.49a1.5,1.5,0,0,1-1.66,1.16,14.57,14.57,0,0,0-2-.14,12.11,12.11,0,0,0-4.32.78l.64-5.71h3.85Q171.49,27.66,171,31.08Z" transform="translate(0 0)"/><path class="cls-4" d="M17.77,42.05h8.7a5.78,5.78,0,0,0,6-5.84v-.87a6.55,6.55,0,0,0-6-6.24l-10.62,0c1.59,1.14,1.92,4.35,1.92,6Zm5.78-25.79A3.33,3.33,0,0,0,25,15.89c3.4,2.76,7.63,4.26,14.67,4.26,5.94,0,11-1.42,14.58-4.21a3.17,3.17,0,0,0,1.37.32,3.21,3.21,0,1,0-3.21-3.21,3.55,3.55,0,0,0,.06.56c-3.13,3-7.69,3.92-12.76,3.92s-9.87-1-13-4.17a3,3,0,0,0,0-.31,3.21,3.21,0,1,0-3.21,3.21Zm32.09-5.14a1.93,1.93,0,1,1-1.92,1.93A1.93,1.93,0,0,1,55.64,11.12Zm-32.09,0a1.93,1.93,0,1,1-1.93,1.93A1.92,1.92,0,0,1,23.55,11.12ZM29.83,44.4l-12.06,0v7.94a6.12,6.12,0,0,0,6,6.25h6.07a6.13,6.13,0,0,0,6-6.25V51.1C35.83,47.64,33.14,44.4,29.83,44.4Zm11-.68v9.84a7,7,0,0,1-2.18,5S46,59.19,46,53.44V38.84S40.87,39.61,40.87,43.72Zm18,7.52v-8c.64,0,1.1,0,2.72,0,4.21,0,3.71-5.18,3.71-5.18l-6.43,0V29.21s-5.13,1-5.13,5.5v16.7c0,5.92,4.72,7.17,6.65,7.17,3.14,0,4-3.62,4-3.62S58.82,55.3,58.82,51.24ZM43.45,29a3.89,3.89,0,1,0,3.73,3.89A3.81,3.81,0,0,0,43.45,29Z" transform="translate(0 0)"/></svg>